<svg width="19" height="19" viewBox="0 0 19 19" fill="none" xmlns="http://www.w3.org/2000/svg"><path fill-rule="evenodd" clip-rule="evenodd" d="M4.16 2.19c-.16 0-.32.02-.46.05-.2-.44-.47-.84-.77-1.14C2.43.59 1.63.39.51.39v1.8c.68 0 1.07.1 1.16.18C2 2.71 2.3 3.4 2.3 4v.12l.89 6.18A2.8 2.8 0 0 0 .5 12.94v.95a2.82 2.82 0 0 0 2.63 2.7h.2a2.69 2.69 0 0 0 5.08 0h2.1a2.69 2.69 0 0 0 5.21-.9 2.7 2.7 0 0 0-5.22-.9h-2.1a2.69 2.69 0 0 0-5.06 0H3.2c-.46-.03-.87-.44-.9-.96V13a.99.99 0 0 1 .94-.9H14.05l.13-.05a2.36 2.36 0 0 0 1.48-1.4l.1-.18.3-.61a1236.3 1236.3 0 0 0 2.28-4.6c.54-1.21-.55-2.14-1.68-2.16l-12.5-.9Zm9.58 8.1H5.09a.15.15 0 0 1-.11-.13L4.1 3.99l12.43.9-1.13 2.27-.01.02-.93 1.86-.3.6-.12.24-.05.1a.56.56 0 0 1-.25.3Zm-.7 6.3c.5 0 .9-.4.9-.9a.9.9 0 1 0-1.79 0c0 .5.4.9.9.9Zm-6.26-.9a.9.9 0 1 1-1.8 0 .9.9 0 1 1 1.8 0Z" fill="#fff"/></svg>