<svg width="109" height="19" viewBox="0 0 109 19" fill="none" xmlns="http://www.w3.org/2000/svg"><path fill-rule="evenodd" clip-rule="evenodd" d="M104.46 3.04v14.8h-2.11V3.04H98.6V1.4h9.6v1.64h-3.74Zm-8.13 8.7c-.36.46-.82.8-1.38.99-.55.2-1.21.3-1.98.3a11.97 11.97 0 0 1-2.34-.24v5.05h-2.11V1.64c.59-.18 1.19-.3 1.79-.37.6-.07 1.25-.1 1.96-.1.93 0 1.73.1 2.39.29.65.2 1.19.52 1.6.97.4.46.7 1.06.88 1.81.2.75.28 1.68.28 2.8 0 1.14-.09 2.1-.26 2.86a4.62 4.62 0 0 1-.83 1.84Zm-1.2-6.82a3.3 3.3 0 0 0-.54-1.34 2 2 0 0 0-.95-.69 4.2 4.2 0 0 0-1.37-.2h-1.64v8.69h1.64c.53 0 .99-.07 1.37-.2a2 2 0 0 0 .95-.7c.25-.32.43-.77.55-1.33.12-.57.17-1.27.17-2.11 0-.85-.05-1.55-.17-2.12Zm-11.89 8.69h-4.69l-1.05 4.23h-2.11L79.37 1.4h3.05l3.99 16.44H84.3l-1.06-4.23Zm-2.3-9.86h-.1l-1.94 8.22h3.99l-1.95-8.22ZM70.81 5.63h-.11l-3.4 10.1h-2.11l-3.4-10.1h-.12l-.7 12.2h-2.11L59.8 1.4h2.57l3.83 11.27h.09L70.11 1.4h2.58l.94 16.44h-2.11l-.7-12.21ZM55.06 16.3c-.44.64-.97 1.1-1.58 1.36-.62.27-1.33.4-2.12.4-.8 0-1.5-.13-2.13-.4a3.68 3.68 0 0 1-1.58-1.36 7.22 7.22 0 0 1-1-2.6 20.58 20.58 0 0 1-.33-4.1c0-1.64.1-3 .34-4.09a7.22 7.22 0 0 1 1-2.6c.43-.64.96-1.09 1.57-1.36.62-.26 1.33-.4 2.13-.4.8 0 1.5.14 2.12.4.61.27 1.14.72 1.58 1.37.44.64.77 1.5 1 2.6.22 1.08.34 2.44.34 4.09 0 1.64-.12 3-.34 4.1a7.22 7.22 0 0 1-1 2.59ZM54.04 6.14a8.21 8.21 0 0 0-.64-2.16c-.27-.53-.58-.9-.94-1.1-.36-.2-.73-.3-1.1-.3-.38 0-.75.1-1.1.3-.37.2-.68.57-.94 1.1a8.21 8.21 0 0 0-.65 2.16c-.16.91-.24 2.07-.24 3.48 0 1.4.08 2.56.24 3.47.17.91.38 1.63.65 2.16.26.53.57.9.93 1.1.36.21.73.31 1.1.31.38 0 .75-.1 1.1-.3.37-.2.68-.58.95-1.1.26-.54.48-1.26.64-2.17.16-.9.25-2.06.25-3.47 0-1.41-.09-2.57-.25-3.48Zm-12.65 4.18h-4.92v7.52h-2.11V1.4h2.1v7.28h4.93V1.4h2.11v16.44h-2.1v-7.52Zm-11.13 7.52-2.93-7.05-2.93 7.05h-2.11l3.51-8.46-3.16-7.98h2.1l2.59 6.57L29.9 1.4h2.11l-3.16 7.98 3.52 8.46h-2.11ZM13.02 1.4H21v1.64h-5.87v5.4h5.16v1.65h-5.16v6.1H21v1.65h-7.98V1.4ZM7.4 17.84H5.29V3.04H1.54V1.4h9.6v1.64H7.4v14.8Z" fill="#fff"/></svg>